<?xml version="1.0" encoding="UTF-8"?>
<svg version="1.1" xmlns="http://www.w3.org/2000/svg" width="500" height="500">
<path d="M0 0 C165 0 330 0 500 0 C500 165 500 330 500 500 C335 500 170 500 0 500 C0 335 0 170 0 0 Z " fill="#0177C0" transform="translate(0,0)"/>
<path d="M0 0 C1.47355747 1.39590549 1.47355747 1.39590549 3.06410217 3.37049866 C7.42077852 8.56342104 12.17008591 13.29502016 16.97436523 18.07202148 C17.96083091 19.05656372 18.94706601 20.04133703 19.93309021 21.02632141 C22.04052388 23.13061671 24.14949474 25.23335429 26.25970268 27.33486748 C29.59413041 30.65569251 32.92466829 33.98040078 36.25465393 37.30567932 C43.3126303 44.35260093 50.374861 51.39525191 57.4375 58.4375 C65.08757757 66.06554548 72.73690467 73.69433512 80.38139683 81.32797867 C83.69505161 84.63664098 87.01113118 87.94284815 90.32906616 91.24721801 C92.38356625 93.29429079 94.43602113 95.34340452 96.48790932 97.39309502 C97.90079297 98.80319697 99.31618375 100.21078544 100.73162842 101.61831665 C101.5629277 102.44954544 102.39422699 103.28077423 103.25071716 104.13719177 C103.97905982 104.86331382 104.70740248 105.58943586 105.45781612 106.33756161 C107 108 107 108 107 109 C74.99 109 42.98 109 10 109 C10 88.54 10 68.08 10 47 C2.74 47 -4.52 47 -12 47 C-12 74.72 -12 102.44 -12 131 C-1.8421875 130.9071875 8.315625 130.814375 18.78125 130.71875 C25.21616211 130.67787405 31.65098009 130.63903152 38.0859375 130.609375 C48.30013191 130.561923 58.51379801 130.5061702 68.72753906 130.39648438 C76.16656761 130.31663454 83.6051672 130.26510807 91.04461241 130.24729204 C94.98239479 130.23688052 98.91895023 130.21249329 102.8563385 130.15415955 C106.56672453 130.09963707 110.27538498 130.08314981 113.98613358 130.09513855 C115.98869152 130.09190654 117.99106367 130.04896666 119.99313354 130.00463867 C126.43655847 130.06340459 130.17819632 130.40446306 134.87145996 135.0567627 C135.9505087 136.34162186 137.0078343 137.64692333 138 139 C132.20541759 146.09278331 125.67956366 152.45364293 119.20166016 158.91186523 C117.90008413 160.21315887 116.59872889 161.51467337 115.2975769 162.81639099 C111.77961844 166.33463541 108.25859351 169.84979619 104.73699617 173.36439776 C101.05165887 177.04346798 97.36916845 180.7253855 93.68637085 184.40699768 C86.71871294 191.37155215 79.74851066 198.33355437 72.77738321 205.29463583 C64.83829345 213.22253376 56.90205568 221.15328405 48.96605229 229.08427131 C32.64719894 245.39268265 16.32477994 261.69752136 0 278 C-3.53045586 276.49226866 -5.80212634 274.44700456 -8.50518799 271.74205017 C-9.40258698 270.84884567 -10.29998596 269.95564117 -11.22457886 269.03536987 C-12.21133956 268.04312612 -13.19800003 267.05078268 -14.18457031 266.05834961 C-15.22906012 265.01493293 -16.27398279 263.97194941 -17.31930542 262.92936707 C-20.15415286 260.09936461 -22.9827149 257.26315561 -25.81005955 254.42565989 C-28.76695944 251.45997878 -31.72912778 248.49956858 -34.69061279 245.53846741 C-39.66043996 240.56770395 -44.62637941 235.59308332 -49.58984375 230.6159668 C-55.3362441 224.85381972 -61.0878758 219.09693741 -66.84252095 213.34302515 C-72.37227338 207.81388196 -77.89916843 202.28189233 -83.42446136 196.74829292 C-85.77935179 194.38986334 -88.13509737 192.03229278 -90.49149323 189.67536736 C-93.2615692 186.90429055 -96.02909385 184.13069072 -98.79462051 181.35507393 C-99.81288827 180.33387341 -100.83201601 179.31352962 -101.85203934 178.29408264 C-103.23792165 176.90868734 -104.62043834 175.51992762 -106.00274658 174.13096619 C-106.77923176 173.35280517 -107.55571693 172.57464415 -108.35573196 171.77290249 C-110 170 -110 170 -110 169 C-77.66 169 -45.32 169 -12 169 C-12 189.46 -12 209.92 -12 231 C-4.74 231 2.52 231 10 231 C10 203.28 10 175.56 10 147 C-0.24160156 147.08121094 -10.48320312 147.16242188 -21.03515625 147.24609375 C-27.52019463 147.28185697 -34.0051616 147.31584389 -40.49023438 147.34179688 C-50.78564872 147.38332957 -61.08066199 147.43214842 -71.37573242 147.52807617 C-78.87371402 147.59790773 -86.37137019 147.64302189 -93.86966795 147.65861946 C-97.83914604 147.66773549 -101.80769329 147.68911513 -105.77687263 147.7401104 C-109.51587369 147.78775749 -113.25356399 147.80225509 -116.99283981 147.79175377 C-119.01342778 147.79458668 -121.0338741 147.83218877 -123.05409241 147.87094116 C-128.89904579 147.82456767 -132.99925231 147.78444457 -137.43260193 143.70033264 C-139.05583858 141.89393711 -139.05583858 141.89393711 -140 140 C-139.5787922 136.29427936 -137.99004317 134.63585959 -135.359375 132.06640625 C-134.61816406 131.33486328 -133.87695312 130.60332031 -133.11328125 129.84960938 C-132.33339844 129.09486328 -131.55351562 128.34011719 -130.75 127.5625 C-129.98558594 126.81162109 -129.22117187 126.06074219 -128.43359375 125.28710938 C-126.9481718 123.82862513 -125.45997206 122.37296356 -123.96875 120.92041016 C-121.62493737 118.63414649 -119.30930146 116.32108361 -117 114 C-113.33333333 110.33333333 -109.66666667 106.66666667 -106 103 C-105.1028125 102.0615625 -104.205625 101.123125 -103.28125 100.15625 C-101 98 -101 98 -99 98 C-98.73832031 97.41089844 -98.47664063 96.82179688 -98.20703125 96.21484375 C-96.9357725 93.88214566 -95.59769469 92.39645632 -93.6875 90.5625 C-92.82705078 89.72912109 -92.82705078 89.72912109 -91.94921875 88.87890625 C-90.98435547 87.94884766 -90.98435547 87.94884766 -90 87 C-88.33060334 85.33606781 -86.66417725 83.66915237 -85 82 C-81.33333333 78.33333333 -77.66666667 74.66666667 -74 71 C-73.1028125 70.0615625 -72.205625 69.123125 -71.28125 68.15625 C-69 66 -69 66 -67 66 C-66.73832031 65.41089844 -66.47664063 64.82179688 -66.20703125 64.21484375 C-64.9357725 61.88214566 -63.59769469 60.39645632 -61.6875 58.5625 C-61.11386719 58.00691406 -60.54023438 57.45132813 -59.94921875 56.87890625 C-59.30597656 56.25886719 -58.66273438 55.63882813 -58 55 C-56.33060334 53.33606781 -54.66417725 51.66915237 -53 50 C-49.33333333 46.33333333 -45.66666667 42.66666667 -42 39 C-40.65421875 37.59234375 -40.65421875 37.59234375 -39.28125 36.15625 C-37 34 -37 34 -35 34 C-34.73832031 33.41089844 -34.47664063 32.82179687 -34.20703125 32.21484375 C-32.9357725 29.88214566 -31.59769469 28.39645632 -29.6875 26.5625 C-29.11386719 26.00691406 -28.54023438 25.45132813 -27.94921875 24.87890625 C-27.30597656 24.25886719 -26.66273438 23.63882813 -26 23 C-22.8606808 19.88906524 -19.76632742 16.73743877 -16.6796875 13.57421875 C-15.07830515 11.94513539 -13.47673805 10.31623363 -11.875 8.6875 C-11.06417969 7.85154297 -10.25335938 7.01558594 -9.41796875 6.15429688 C-8.24814453 4.9699707 -8.24814453 4.9699707 -7.0546875 3.76171875 C-6.34812012 3.03944092 -5.64155273 2.31716309 -4.91357422 1.57299805 C-3 0 -3 0 0 0 Z " fill="#FDFEFD" transform="translate(251,111)"/>
<path d="M0 0 C0.53810932 0.48677625 1.07621864 0.97355249 1.63063431 1.47507954 C4.60070355 3.38661197 6.39294466 3.38330239 9.90985107 3.39872742 C11.7229351 3.41753464 11.7229351 3.41753464 13.57264709 3.4367218 C14.90878323 3.43554779 16.24491914 3.43408865 17.58105469 3.43237305 C18.99050252 3.44139083 20.3999425 3.4517181 21.80937195 3.46325684 C25.63341397 3.49085131 29.45730728 3.50011462 33.28143597 3.50611091 C37.27868742 3.51548825 41.27582753 3.54169109 45.27301025 3.56611633 C52.84124719 3.6098027 60.40946255 3.6383365 67.97778726 3.66143972 C78.20555741 3.69353577 88.43319892 3.7490117 98.66087151 3.80318546 C114.77387614 3.88791555 130.88683022 3.94138461 147 4 C147 31.72 147 59.44 147 88 C139.74 88 132.48 88 125 88 C125 67.54 125 47.08 125 26 C125.66 26 126.32 26 127 26 C127 45.14 127 64.28 127 84 C132.61 84 138.22 84 144 84 C144.495 45.39 144.495 45.39 145 6 C134.78417969 5.96261719 124.56835938 5.92523438 114.04296875 5.88671875 C107.58527269 5.85645604 101.12759485 5.82544217 94.66992188 5.79101562 C84.41171897 5.7364687 74.15356671 5.6850588 63.89526367 5.65356445 C56.4250785 5.63061589 48.95502552 5.59725331 41.48494512 5.55129844 C37.52828041 5.52732359 33.57174696 5.50862285 29.61501122 5.50238609 C25.89263007 5.49635436 22.17058496 5.47642459 18.44832802 5.44572449 C16.42718026 5.43270447 14.40595412 5.43451941 12.38476562 5.4367218 C10.58636482 5.41791458 10.58636482 5.41791458 8.75163269 5.39872742 C7.18504551 5.39181397 7.18504551 5.39181397 5.58681011 5.38476086 C3 5 3 5 1.14052296 3.60007954 C0 2 0 2 0 0 Z " fill="#1671AA" transform="translate(114,254)"/>
<path d="M0 0 C46.86 0 93.72 0 142 0 C142.33 0.66 142.66 1.32 143 2 C139.68191894 3.00112785 136.69978989 3.11037735 133.24200439 3.08229065 C132.06693832 3.07525116 130.89187225 3.06821167 129.68119812 3.06095886 C128.39582657 3.04801285 127.11045502 3.03506683 125.78613281 3.02172852 C124.41610529 3.01158195 123.04607435 3.00188869 121.67604065 2.99261475 C117.95940673 2.96617158 114.2428526 2.9333844 110.5262804 2.89946485 C106.64122606 2.86508434 102.75612903 2.83652899 98.87103271 2.80735779 C91.5152323 2.75124064 84.15948535 2.68987882 76.80374312 2.62663645 C68.42899222 2.55488805 60.05419855 2.48898072 51.67939615 2.42356598 C34.45287489 2.28888039 17.22642175 2.14685318 0 2 C0 1.34 0 0.68 0 0 Z " fill="#C1E4F3" transform="translate(239,242)"/>
<path d="M0 0 C0 20.79 0 41.58 0 63 C45.045 62.505 45.045 62.505 91 62 C90.505 60.02 90.505 60.02 90 58 C92.02054804 59.64169528 94.02043058 61.30911778 96 63 C96 63.33 96 63.66 96 64 C63.99 64 31.98 64 -1 64 C-1 43.54 -1 23.08 -1 2 C-8.26 2 -15.52 2 -23 2 C-23 1.67 -23 1.34 -23 1 C-20.29178874 0.83111377 -17.58345903 0.66482399 -14.875 0.5 C-14.11445313 0.45230469 -13.35390625 0.40460938 -12.5703125 0.35546875 C-11.82265625 0.31035156 -11.075 0.26523438 -10.3046875 0.21875 C-9.62390137 0.17685547 -8.94311523 0.13496094 -8.24169922 0.09179688 C-5.49659638 -0.02061422 -2.74740347 0 0 0 Z " fill="#E3FEFE" transform="translate(262,156)"/>
<path d="M0 0 C32.34 0 64.68 0 98 0 C98 20.46 98 40.92 98 62 C97.67 62 97.34 62 97 62 C97 41.87 97 21.74 97 1 C66.97 1 36.94 1 6 1 C6.99 2.65 7.98 4.3 9 6 C8.67 6.99 8.34 7.98 8 9 C6.66368764 7.6905332 5.33102075 6.37734515 4 5.0625 C3.2575 4.33160156 2.515 3.60070312 1.75 2.84765625 C0 1 0 1 0 0 Z " fill="#E1FEFE" transform="translate(141,280)"/>
<path d="M0 0 C0.33 0 0.66 0 1 0 C1.01030746 0.60767715 1.02061493 1.21535431 1.03123474 1.84144592 C1.72279479 43.42818442 1.72279479 43.42818442 3 85 C0.40108846 86.29945577 -1.32666656 86.0223077 -4.2265625 85.87890625 C-5.2578125 85.83056641 -6.2890625 85.78222656 -7.3515625 85.73242188 C-8.97191406 85.64831055 -8.97191406 85.64831055 -10.625 85.5625 C-11.71296875 85.51029297 -12.8009375 85.45808594 -13.921875 85.40429688 C-16.6148581 85.27437225 -19.30749336 85.13939838 -22 85 C-22 84.67 -22 84.34 -22 84 C-14.74 84 -7.48 84 0 84 C0 56.28 0 28.56 0 0 Z " fill="#E0FDFE" transform="translate(261,258)"/>
<path d="M0 0 C1.32 0 2.64 0 4 0 C4.33 20.46 4.66 40.92 5 62 C6.32 62.33 7.64 62.66 9 63 C7.1875 63.6875 7.1875 63.6875 5 64 C3.37882996 62.88505554 3.37882996 62.88505554 2 61 C1.67720032 58.36140442 1.67720032 58.36140442 1.7512207 55.15161133 C1.77146805 53.9505928 1.79171539 52.74957428 1.81257629 51.51216125 C1.84993393 50.21521835 1.88729156 48.91827545 1.92578125 47.58203125 C1.95381917 46.24113128 1.98050908 44.90020249 2.00590515 43.55924988 C2.07632082 40.03252546 2.16504375 36.50649006 2.25756836 32.98028564 C2.34877483 29.38097425 2.42268569 25.78131247 2.49804688 22.18164062 C2.64842587 15.12065452 2.81814569 8.06025123 3 1 C2.01 0.67 1.02 0.34 0 0 Z " fill="#0B73B7" transform="translate(256,159)"/>
<path d="M0 0 C4.41105553 0.78768849 6.97138693 2.71423367 9.75 6.1875 C10.1625 6.785625 10.575 7.38375 11 8 C12.32 7.67 13.64 7.34 15 7 C14.67 8.32 14.34 9.64 14 11 C14.99 11 15.98 11 17 11 C16.67 12.65 16.34 14.3 16 16 C10.35573231 11.31645873 4.9941954 6.3792354 0 1 C0 0.67 0 0.34 0 0 Z " fill="#2483BC" transform="translate(328,189)"/>
<path d="M0 0 C4.41105553 0.78768849 6.97138693 2.71423367 9.75 6.1875 C10.1625 6.785625 10.575 7.38375 11 8 C12.32 7.67 13.64 7.34 15 7 C14.67 8.32 14.34 9.64 14 11 C14.99 11 15.98 11 17 11 C16.67 12.65 16.34 14.3 16 16 C10.35573231 11.31645873 4.9941954 6.3792354 0 1 C0 0.67 0 0.34 0 0 Z " fill="#2483BC" transform="translate(312,173)"/>
<path d="M0 0 C4.41105553 0.78768849 6.97138693 2.71423367 9.75 6.1875 C10.1625 6.785625 10.575 7.38375 11 8 C12.32 7.67 13.64 7.34 15 7 C14.67 8.32 14.34 9.64 14 11 C14.99 11 15.98 11 17 11 C16.67 12.65 16.34 14.3 16 16 C10.35573231 11.31645873 4.9941954 6.3792354 0 1 C0 0.67 0 0.34 0 0 Z " fill="#2483BC" transform="translate(296,157)"/>
<path d="M0 0 C4.41105553 0.78768849 6.97138693 2.71423367 9.75 6.1875 C10.1625 6.785625 10.575 7.38375 11 8 C12.32 7.67 13.64 7.34 15 7 C14.67 8.32 14.34 9.64 14 11 C14.99 11 15.98 11 17 11 C16.67 12.65 16.34 14.3 16 16 C10.35573231 11.31645873 4.9941954 6.3792354 0 1 C0 0.67 0 0.34 0 0 Z " fill="#2483BC" transform="translate(280,141)"/>
<path d="M0 0 C4.41105553 0.78768849 6.97138693 2.71423367 9.75 6.1875 C10.1625 6.785625 10.575 7.38375 11 8 C12.32 7.67 13.64 7.34 15 7 C14.67 8.32 14.34 9.64 14 11 C14.99 11 15.98 11 17 11 C16.67 12.65 16.34 14.3 16 16 C10.35573231 11.31645873 4.9941954 6.3792354 0 1 C0 0.67 0 0.34 0 0 Z " fill="#2483BC" transform="translate(264,125)"/>
<path d="M0 0 C0.103125 0.639375 0.20625 1.27875 0.3125 1.9375 C0.539375 2.618125 0.76625 3.29875 1 4 C1.99 4.33 2.98 4.66 4 5 C3.67 6.65 3.34 8.3 3 10 C3.66 10.33 4.32 10.66 5 11 C3.3125 11.8125 3.3125 11.8125 1 12 C-1.8125 9.8125 -1.8125 9.8125 -4 7 C-4 4.22141617 -3.27387266 3.30673738 -1.4375 1.25 C-0.963125 0.8375 -0.48875 0.425 0 0 Z " fill="#EBF8F9" transform="translate(115,244)"/>
<path d="M0 0 C0.33 0.99 0.66 1.98 1 3 C1.99 3.33 2.98 3.66 4 4 C2.02 4 0.04 4 -2 4 C0.31 6.64 2.62 9.28 5 12 C2.14953727 12 -0.2189183 11.55621634 -3 11 C-3.99 11 -4.98 11 -6 11 C-6 9.35 -6 7.7 -6 6 C-5.34 5.67 -4.68 5.34 -4 5 C-3.67 4.34 -3.34 3.68 -3 3 C-2 1 -2 1 0 0 Z " fill="#0C73B3" transform="translate(143,275)"/>
<path d="M0 0 C0 0.99 0 1.98 0 3 C1.32 3.33 2.64 3.66 4 4 C4 4.99 4 5.98 4 7 C2.68 7.33 1.36 7.66 0 8 C-1.98 5.69 -3.96 3.38 -6 1 C-4 0 -4 0 0 0 Z " fill="#E9F4F5" transform="translate(156,288)"/>
<path d="M0 0 C0.33 1.32 0.66 2.64 1 4 C-0.49739583 5.20442708 -1.99479167 6.40885417 -3.4921875 7.61328125 C-5.25292107 9.12270545 -5.25292107 9.12270545 -7 12 C-8.32 11.67 -9.64 11.34 -11 11 C-7.37 7.37 -3.74 3.74 0 0 Z " fill="#C2E8F4" transform="translate(127,232)"/>
<path d="M0 0 C5.68594114 1.27933676 8.65154245 4.26597381 12 9 C12.37535718 10.32211795 12.71729744 11.65502113 13 13 C8.11950075 9.0580583 3.9419417 4.88049925 0 0 Z " fill="#3084B7" transform="translate(344,205)"/>
<path d="M0 0 C1.32 0 2.64 0 4 0 C4 0.66 4 1.32 4 2 C4.61875 2.268125 5.2375 2.53625 5.875 2.8125 C8 4 8 4 10 7 C9.67 7.99 9.34 8.98 9 10 C7.49702124 8.52386015 5.99768715 7.04400843 4.5 5.5625 C3.6646875 4.73878906 2.829375 3.91507812 1.96875 3.06640625 C0 1 0 1 0 0 Z " fill="#D0EEFA" transform="translate(221,360)"/>
<path d="M0 0 C1.32 0 2.64 0 4 0 C4 0.66 4 1.32 4 2 C4.61875 2.268125 5.2375 2.53625 5.875 2.8125 C8 4 8 4 10 7 C9.67 7.99 9.34 8.98 9 10 C7.49702124 8.52386015 5.99768715 7.04400843 4.5 5.5625 C3.6646875 4.73878906 2.829375 3.91507812 1.96875 3.06640625 C0 1 0 1 0 0 Z " fill="#D0EEFA" transform="translate(189,328)"/>
<path d="M0 0 C1.32 0 2.64 0 4 0 C4 0.66 4 1.32 4 2 C4.61875 2.268125 5.2375 2.53625 5.875 2.8125 C8 4 8 4 10 7 C9.67 7.99 9.34 8.98 9 10 C7.49702124 8.52386015 5.99768715 7.04400843 4.5 5.5625 C3.6646875 4.73878906 2.829375 3.91507812 1.96875 3.06640625 C0 1 0 1 0 0 Z " fill="#D0EEFA" transform="translate(157,296)"/>
<path d="M0 0 C0.33 0.66 0.66 1.32 1 2 C0.67 2.66 0.34 3.32 0 4 C0.99 4 1.98 4 3 4 C2.67 5.65 2.34 7.3 2 9 C0.85073734 8.04578192 -0.29430541 7.08647955 -1.4375 6.125 C-2.07558594 5.59132813 -2.71367187 5.05765625 -3.37109375 4.5078125 C-5 3 -5 3 -6 1 C-4.7934375 1.0309375 -4.7934375 1.0309375 -3.5625 1.0625 C-1.06645115 1.29633621 -1.06645115 1.29633621 0 0 Z " fill="#2083BF" transform="translate(262,116)"/>
<path d="M0 0 C2.8125 0.1875 2.8125 0.1875 6 1 C7.9375 3.375 7.9375 3.375 9 6 C8.67 6.99 8.34 7.98 8 9 C6.66368764 7.6905332 5.33102075 6.37734515 4 5.0625 C3.2575 4.33160156 2.515 3.60070312 1.75 2.84765625 C0 1 0 1 0 0 Z " fill="#CBF0FD" transform="translate(141,280)"/>
<path d="M0 0 C0 0.66 0 1.32 0 2 C-0.99 2 -1.98 2 -3 2 C-3 2.99 -3 3.98 -3 5 C-4.82193842 6.9249647 -6.89235283 8.37535531 -9 10 C-9.66 9.34 -10.32 8.68 -11 8 C-9.73861805 6.65772182 -8.46555441 5.32641323 -7.1875 4 C-6.47980469 3.2575 -5.77210938 2.515 -5.04296875 1.75 C-3 0 -3 0 0 0 Z " fill="#BCE5F4" transform="translate(251,111)"/>
<path d="M0 0 C0.67095703 0.58007812 0.67095703 0.58007812 1.35546875 1.171875 C4.8521026 4.18390075 8.37407463 7.14321031 12 10 C11.67 10.99 11.34 11.98 11 13 C10.01 12.67 9.02 12.34 8 12 C7.3125 9.9375 7.3125 9.9375 7 8 C6.34 8 5.68 8 5 8 C0 2.52380952 0 2.52380952 0 0 Z " fill="#1470A8" transform="translate(239,379)"/>
<path d="M0 0 C0.99 0.33 1.98 0.66 3 1 C2.34 2.98 1.68 4.96 1 7 C-0.98 5.35 -2.96 3.7 -5 2 C-4.360625 1.855625 -3.72125 1.71125 -3.0625 1.5625 C-1.02454854 1.18992819 -1.02454854 1.18992819 0 0 Z " fill="#E2F2FA" transform="translate(236,369)"/>
<path d="M0 0 C0.99 0.33 1.98 0.66 3 1 C2.34 2.98 1.68 4.96 1 7 C-0.98 5.35 -2.96 3.7 -5 2 C-4.360625 1.855625 -3.72125 1.71125 -3.0625 1.5625 C-1.02454854 1.18992819 -1.02454854 1.18992819 0 0 Z " fill="#E2F2FA" transform="translate(204,337)"/>
<path d="M0 0 C0.99 0.33 1.98 0.66 3 1 C2.34 2.98 1.68 4.96 1 7 C-0.98 5.35 -2.96 3.7 -5 2 C-4.360625 1.855625 -3.72125 1.71125 -3.0625 1.5625 C-1.02454854 1.18992819 -1.02454854 1.18992819 0 0 Z " fill="#E2F2FA" transform="translate(172,305)"/>
<path d="M0 0 C4.52615993 3.67832017 8.39424999 7.41086363 12 12 C10.68 11.67 9.36 11.34 8 11 C8 10.34 8 9.68 8 9 C7.01 8.67 6.02 8.34 5 8 C0 2.53488372 0 2.53488372 0 0 Z " fill="#E3FCFE" transform="translate(326,188)"/>
<path d="M0 0 C4.52615993 3.67832017 8.39424999 7.41086363 12 12 C10.68 11.67 9.36 11.34 8 11 C8 10.34 8 9.68 8 9 C7.01 8.67 6.02 8.34 5 8 C0 2.53488372 0 2.53488372 0 0 Z " fill="#E3FCFE" transform="translate(310,172)"/>
<path d="M0 0 C4.52615993 3.67832017 8.39424999 7.41086363 12 12 C10.68 11.67 9.36 11.34 8 11 C8 10.34 8 9.68 8 9 C7.01 8.67 6.02 8.34 5 8 C0 2.53488372 0 2.53488372 0 0 Z " fill="#E3FCFE" transform="translate(294,156)"/>
<path d="M0 0 C4.52615993 3.67832017 8.39424999 7.41086363 12 12 C10.68 11.67 9.36 11.34 8 11 C8 10.34 8 9.68 8 9 C7.01 8.67 6.02 8.34 5 8 C0 2.53488372 0 2.53488372 0 0 Z " fill="#E3FCFE" transform="translate(278,140)"/>
<path d="M0 0 C4.52615993 3.67832017 8.39424999 7.41086363 12 12 C10.68 11.67 9.36 11.34 8 11 C8 10.34 8 9.68 8 9 C7.01 8.67 6.02 8.34 5 8 C0 2.53488372 0 2.53488372 0 0 Z " fill="#E3FCFE" transform="translate(262,124)"/>
<path d="M0 0 C3.14737182 0.69941596 6.02588876 1.76078698 9 3 C8.67 4.65 8.34 6.3 8 8 C6.85073734 7.04578192 5.70569459 6.08647955 4.5625 5.125 C3.92441406 4.59132813 3.28632813 4.05765625 2.62890625 3.5078125 C1 2 1 2 0 0 Z " fill="#D8EFF9" transform="translate(213,352)"/>
<path d="M0 0 C3.14737182 0.69941596 6.02588876 1.76078698 9 3 C8.67 4.65 8.34 6.3 8 8 C6.85073734 7.04578192 5.70569459 6.08647955 4.5625 5.125 C3.92441406 4.59132813 3.28632813 4.05765625 2.62890625 3.5078125 C1 2 1 2 0 0 Z " fill="#D8EFF9" transform="translate(181,320)"/>
<path d="M0 0 C0 3 0 3 -1.375 4.4375 C-1.91125 4.953125 -2.4475 5.46875 -3 6 C-4.17574711 8.09989652 -4.17574711 8.09989652 -5 10 C-5.99 10 -6.98 10 -8 10 C-6.34908222 5.70761377 -3.26245434 3.1206085 0 0 Z " fill="#307FB1" transform="translate(260,379)"/>
<path d="M0 0 C3.35595828 0.59927826 5.37801226 1.84622436 8 4 C7.67 5.32 7.34 6.64 7 8 C5.83035398 6.8572081 4.66435444 5.71068285 3.5 4.5625 C2.8503125 3.92441406 2.200625 3.28632813 1.53125 2.62890625 C0 1 0 1 0 0 Z " fill="#CDEDFB" transform="translate(237,376)"/>
<path d="M0 0 C3.35595828 0.59927826 5.37801226 1.84622436 8 4 C7.67 5.32 7.34 6.64 7 8 C5.83035398 6.8572081 4.66435444 5.71068285 3.5 4.5625 C2.8503125 3.92441406 2.200625 3.28632813 1.53125 2.62890625 C0 1 0 1 0 0 Z " fill="#CDEDFB" transform="translate(205,344)"/>
<path d="M0 0 C3.35595828 0.59927826 5.37801226 1.84622436 8 4 C7.67 5.32 7.34 6.64 7 8 C5.83035398 6.8572081 4.66435444 5.71068285 3.5 4.5625 C2.8503125 3.92441406 2.200625 3.28632813 1.53125 2.62890625 C0 1 0 1 0 0 Z " fill="#CDEDFB" transform="translate(173,312)"/>
<path d="M0 0 C0.66 0.33 1.32 0.66 2 1 C-0.475 4.465 -0.475 4.465 -3 8 C-4.32 7.67 -5.64 7.34 -7 7 C-4.69 4.69 -2.38 2.38 0 0 Z " fill="#297EB2" transform="translate(388,251)"/>
<path d="M0 0 C7.48291572 6.15034169 7.48291572 6.15034169 10 10 C4.98343041 8.5666944 2.98547118 6.09436048 0 2 C0 1.34 0 0.68 0 0 Z " fill="#E3FCFE" transform="translate(342,204)"/>
<path d="M0 0 C0 3.57575896 -1.08840607 5.05295935 -3 8 C-4.32 7.67 -5.64 7.34 -7 7 C-4.69 4.69 -2.38 2.38 0 0 Z " fill="#297FB8" transform="translate(268,371)"/>
<path d="M0 0 C0 3.57575896 -1.08840607 5.05295935 -3 8 C-4.32 7.67 -5.64 7.34 -7 7 C-4.69 4.69 -2.38 2.38 0 0 Z " fill="#2A7EB5" transform="translate(276,363)"/>
<path d="M0 0 C0 3.57575896 -1.08840607 5.05295935 -3 8 C-4.32 7.67 -5.64 7.34 -7 7 C-4.69 4.69 -2.38 2.38 0 0 Z " fill="#297FB6" transform="translate(284,355)"/>
<path d="M0 0 C0 3.57575896 -1.08840607 5.05295935 -3 8 C-4.32 7.67 -5.64 7.34 -7 7 C-4.69 4.69 -2.38 2.38 0 0 Z " fill="#2A7EB5" transform="translate(292,347)"/>
<path d="M0 0 C0 3.57575896 -1.08840607 5.05295935 -3 8 C-4.32 7.67 -5.64 7.34 -7 7 C-4.69 4.69 -2.38 2.38 0 0 Z " fill="#297FB8" transform="translate(300,339)"/>
<path d="M0 0 C0 3.57575896 -1.08840607 5.05295935 -3 8 C-4.32 7.67 -5.64 7.34 -7 7 C-4.69 4.69 -2.38 2.38 0 0 Z " fill="#2A7EB5" transform="translate(308,331)"/>
<path d="M0 0 C0 3.57575896 -1.08840607 5.05295935 -3 8 C-4.32 7.67 -5.64 7.34 -7 7 C-4.69 4.69 -2.38 2.38 0 0 Z " fill="#297FB6" transform="translate(316,323)"/>
<path d="M0 0 C0 3.57575896 -1.08840607 5.05295935 -3 8 C-4.32 7.67 -5.64 7.34 -7 7 C-4.69 4.69 -2.38 2.38 0 0 Z " fill="#2A7EB5" transform="translate(324,315)"/>
<path d="M0 0 C0 3.57575896 -1.08840607 5.05295935 -3 8 C-4.32 7.67 -5.64 7.34 -7 7 C-4.69 4.69 -2.38 2.38 0 0 Z " fill="#297FB8" transform="translate(332,307)"/>
<path d="M0 0 C0 3.57575896 -1.08840607 5.05295935 -3 8 C-4.32 7.67 -5.64 7.34 -7 7 C-4.69 4.69 -2.38 2.38 0 0 Z " fill="#2A7EB5" transform="translate(340,299)"/>
<path d="M0 0 C0 3.57575896 -1.08840607 5.05295935 -3 8 C-4.32 7.67 -5.64 7.34 -7 7 C-4.69 4.69 -2.38 2.38 0 0 Z " fill="#297FB6" transform="translate(348,291)"/>
<path d="M0 0 C0 3.57575896 -1.08840607 5.05295935 -3 8 C-4.32 7.67 -5.64 7.34 -7 7 C-4.69 4.69 -2.38 2.38 0 0 Z " fill="#2A7EB5" transform="translate(356,283)"/>
<path d="M0 0 C0 3.57575896 -1.08840607 5.05295935 -3 8 C-4.32 7.67 -5.64 7.34 -7 7 C-4.69 4.69 -2.38 2.38 0 0 Z " fill="#297FB8" transform="translate(364,275)"/>
<path d="M0 0 C0 3.57575896 -1.08840607 5.05295935 -3 8 C-4.32 7.67 -5.64 7.34 -7 7 C-4.69 4.69 -2.38 2.38 0 0 Z " fill="#2A7EB5" transform="translate(372,267)"/>
<path d="M0 0 C0 3.57575896 -1.08840607 5.05295935 -3 8 C-4.32 7.67 -5.64 7.34 -7 7 C-4.69 4.69 -2.38 2.38 0 0 Z " fill="#297FB6" transform="translate(380,259)"/>
<path d="M0 0 C1.98 1.65 3.96 3.3 6 5 C4.35 6.65 2.7 8.3 1 10 C1 9.01 1 8.02 1 7 C1.66 7 2.32 7 3 7 C2.67 5.68 2.34 4.36 2 3 C1.34 3 0.68 3 0 3 C0 2.01 0 1.02 0 0 Z " fill="#DEFDFF" transform="translate(383,245)"/>
<path d="M0 0 C0 3 0 3 -1 6 C-1.66 6 -2.32 6 -3 6 C-3 6.66 -3 7.32 -3 8 C-4.32 7.67 -5.64 7.34 -7 7 C-4.69 4.69 -2.38 2.38 0 0 Z " fill="#B9E3F2" transform="translate(143,216)"/>
<path d="M0 0 C0 3 0 3 -1 6 C-1.66 6 -2.32 6 -3 6 C-3 6.66 -3 7.32 -3 8 C-4.32 7.67 -5.64 7.34 -7 7 C-4.69 4.69 -2.38 2.38 0 0 Z " fill="#B9E3F2" transform="translate(159,200)"/>
<path d="M0 0 C0 3 0 3 -1 6 C-1.66 6 -2.32 6 -3 6 C-3 6.66 -3 7.32 -3 8 C-4.32 7.67 -5.64 7.34 -7 7 C-4.69 4.69 -2.38 2.38 0 0 Z " fill="#B9E3F2" transform="translate(175,184)"/>
<path d="M0 0 C0 3 0 3 -1 6 C-1.66 6 -2.32 6 -3 6 C-3 6.66 -3 7.32 -3 8 C-4.32 7.67 -5.64 7.34 -7 7 C-4.69 4.69 -2.38 2.38 0 0 Z " fill="#B9E3F2" transform="translate(191,168)"/>
<path d="M0 0 C0 3 0 3 -1 6 C-1.66 6 -2.32 6 -3 6 C-3 6.66 -3 7.32 -3 8 C-4.32 7.67 -5.64 7.34 -7 7 C-4.69 4.69 -2.38 2.38 0 0 Z " fill="#B9E3F2" transform="translate(207,152)"/>
<path d="M0 0 C0 3 0 3 -1 6 C-1.66 6 -2.32 6 -3 6 C-3 6.66 -3 7.32 -3 8 C-4.32 7.67 -5.64 7.34 -7 7 C-4.69 4.69 -2.38 2.38 0 0 Z " fill="#B9E3F2" transform="translate(223,136)"/>
<path d="M0 0 C0 3 0 3 -1 6 C-1.66 6 -2.32 6 -3 6 C-3 6.66 -3 7.32 -3 8 C-4.32 7.67 -5.64 7.34 -7 7 C-4.69 4.69 -2.38 2.38 0 0 Z " fill="#B9E3F2" transform="translate(239,120)"/>
<path d="M0 0 C1.65 1.65 3.3 3.3 5 5 C2.69 5.33 0.38 5.66 -2 6 C-1.34 4.02 -0.68 2.04 0 0 Z " fill="#ECFBFE" transform="translate(251,113)"/>
<path d="M0 0 C0.99 0.33 1.98 0.66 3 1 C-0.465 3.97 -0.465 3.97 -4 7 C-3.67 5.35 -3.34 3.7 -3 2 C-2.01 2 -1.02 2 0 2 C0 1.34 0 0.68 0 0 Z " fill="#146FA9" transform="translate(124,232)"/>
<path d="M0 0 C0.99 0.33 1.98 0.66 3 1 C-0.465 3.97 -0.465 3.97 -4 7 C-3.67 5.35 -3.34 3.7 -3 2 C-2.01 2 -1.02 2 0 2 C0 1.34 0 0.68 0 0 Z " fill="#146FA9" transform="translate(140,216)"/>
<path d="M0 0 C0.99 0.33 1.98 0.66 3 1 C-0.465 3.97 -0.465 3.97 -4 7 C-3.67 5.35 -3.34 3.7 -3 2 C-2.01 2 -1.02 2 0 2 C0 1.34 0 0.68 0 0 Z " fill="#146FA9" transform="translate(156,200)"/>
<path d="M0 0 C0.99 0.33 1.98 0.66 3 1 C-0.465 3.97 -0.465 3.97 -4 7 C-3.67 5.35 -3.34 3.7 -3 2 C-2.01 2 -1.02 2 0 2 C0 1.34 0 0.68 0 0 Z " fill="#146FA9" transform="translate(172,184)"/>
<path d="M0 0 C0.99 0.33 1.98 0.66 3 1 C-0.465 3.97 -0.465 3.97 -4 7 C-3.67 5.35 -3.34 3.7 -3 2 C-2.01 2 -1.02 2 0 2 C0 1.34 0 0.68 0 0 Z " fill="#146FA9" transform="translate(204,152)"/>
<path d="M0 0 C0.99 0.33 1.98 0.66 3 1 C-0.465 3.97 -0.465 3.97 -4 7 C-3.67 5.35 -3.34 3.7 -3 2 C-2.01 2 -1.02 2 0 2 C0 1.34 0 0.68 0 0 Z " fill="#146FA9" transform="translate(236,120)"/>
<path d="M0 0 C1.32 0 2.64 0 4 0 C4.33 1.32 4.66 2.64 5 4 C3.35 4 1.7 4 0 4 C0 2.68 0 1.36 0 0 Z " fill="#0873B8" transform="translate(228,376)"/>
<path d="M0 0 C1.32 0 2.64 0 4 0 C4.33 1.32 4.66 2.64 5 4 C3.35 4 1.7 4 0 4 C0 2.68 0 1.36 0 0 Z " fill="#0873B8" transform="translate(196,344)"/>
<path d="M0 0 C1.32 0 2.64 0 4 0 C4.33 1.32 4.66 2.64 5 4 C3.35 4 1.7 4 0 4 C0 2.68 0 1.36 0 0 Z " fill="#0873B8" transform="translate(164,312)"/>
<path d="M0 0 C0.33 1.32 0.66 2.64 1 4 C0.01 4 -0.98 4 -2 4 C-2.33 5.32 -2.66 6.64 -3 8 C-3.75 6.25 -3.75 6.25 -4 4 C-2.0625 1.75 -2.0625 1.75 0 0 Z " fill="#B5E2F3" transform="translate(115,244)"/>
</svg>
